<?xml version="1.0" encoding="UTF-8"?>
<!DOCTYPE svg PUBLIC "-//W3C//DTD SVG 1.1//EN" "http://www.w3.org/Graphics/SVG/1.1/DTD/svg11.dtd">
<!-- Creator: CorelDRAW 2021 (64-Bit) -->
<svg xmlns="http://www.w3.org/2000/svg" xml:space="preserve" width="1.66666in" height="1.55998in" version="1.1" style="shape-rendering:geometricPrecision; text-rendering:geometricPrecision; image-rendering:optimizeQuality; fill-rule:evenodd; clip-rule:evenodd"
viewBox="0 0 1666.66 1559.98"
 xmlns:xlink="http://www.w3.org/1999/xlink"
 xmlns:xodm="http://www.corel.com/coreldraw/odm/2003">
 <defs>
  <style type="text/css">
   <![CDATA[
    .fil4 {fill:url(#id0)}
    .fil27 {fill:url(#id1)}
    .fil20 {fill:url(#id2)}
    .fil18 {fill:url(#id3)}
    .fil28 {fill:url(#id4)}
    .fil8 {fill:url(#id5)}
    .fil17 {fill:url(#id6)}
    .fil14 {fill:url(#id7)}
    .fil19 {fill:url(#id8)}
    .fil21 {fill:url(#id9)}
    .fil5 {fill:url(#id10)}
    .fil15 {fill:url(#id11)}
    .fil22 {fill:url(#id12)}
    .fil24 {fill:url(#id13)}
    .fil16 {fill:url(#id14)}
    .fil11 {fill:url(#id15)}
    .fil10 {fill:url(#id16)}
    .fil12 {fill:url(#id17)}
    .fil3 {fill:url(#id18)}
    .fil9 {fill:url(#id19)}
    .fil25 {fill:url(#id20)}
    .fil23 {fill:url(#id21)}
    .fil7 {fill:url(#id22)}
    .fil0 {fill:url(#id23)}
    .fil1 {fill:url(#id24)}
    .fil2 {fill:url(#id25)}
    .fil13 {fill:url(#id26)}
    .fil6 {fill:url(#id27)}
    .fil26 {fill:url(#id28);fill-rule:nonzero}
   ]]>
  </style>
  <linearGradient id="id0" gradientUnits="userSpaceOnUse" x1="1628.85" y1="1083.36" x2="392.81" y2="220.81">
   <stop offset="0" style="stop-opacity:1; stop-color:#B07829"/>
   <stop offset="0.258824" style="stop-opacity:1; stop-color:#F1EE84"/>
   <stop offset="0.501961" style="stop-opacity:1; stop-color:#C48F3F"/>
   <stop offset="0.74902" style="stop-opacity:1; stop-color:#F1EE84"/>
   <stop offset="1" style="stop-opacity:1; stop-color:#B07829"/>
  </linearGradient>
  <linearGradient id="id1" gradientUnits="userSpaceOnUse" x1="2098.48" y1="1795.09" x2="-377.96" y2="1392.91">
   <stop offset="0" style="stop-opacity:1; stop-color:#B07829"/>
   <stop offset="0.121569" style="stop-opacity:1; stop-color:#F1EE84"/>
   <stop offset="0.258824" style="stop-opacity:1; stop-color:#B07829"/>
   <stop offset="0.380392" style="stop-opacity:1; stop-color:#F1EE84"/>
   <stop offset="0.501961" style="stop-opacity:1; stop-color:#B07829"/>
   <stop offset="0.619608" style="stop-opacity:1; stop-color:#F1EE84"/>
   <stop offset="0.741176" style="stop-opacity:1; stop-color:#B07829"/>
   <stop offset="0.85098" style="stop-opacity:1; stop-color:#F1EE84"/>
   <stop offset="1" style="stop-opacity:1; stop-color:#B07829"/>
  </linearGradient>
  <linearGradient id="id2" gradientUnits="userSpaceOnUse" xlink:href="#id0" x1="1628.85" y1="1083.39" x2="392.82" y2="220.83">
  </linearGradient>
  <linearGradient id="id3" gradientUnits="userSpaceOnUse" xlink:href="#id0" x1="1628.87" y1="1083.35" x2="392.8" y2="220.81">
  </linearGradient>
  <linearGradient id="id4" gradientUnits="userSpaceOnUse" xlink:href="#id1" x1="2112.57" y1="1381.59" x2="-337.8" y2="1038.34">
  </linearGradient>
  <linearGradient id="id5" gradientUnits="userSpaceOnUse" xlink:href="#id0" x1="1628.84" y1="1083.31" x2="392.82" y2="220.87">
  </linearGradient>
  <linearGradient id="id6" gradientUnits="userSpaceOnUse" xlink:href="#id0" x1="1628.88" y1="1083.41" x2="392.79" y2="220.76">
  </linearGradient>
  <linearGradient id="id7" gradientUnits="userSpaceOnUse" xlink:href="#id0" x1="1628.85" y1="1083.37" x2="392.82" y2="220.81">
  </linearGradient>
  <linearGradient id="id8" gradientUnits="userSpaceOnUse" xlink:href="#id0" x1="1628.87" y1="1083.33" x2="392.8" y2="220.82">
  </linearGradient>
  <linearGradient id="id9" gradientUnits="userSpaceOnUse" xlink:href="#id0" x1="1628.84" y1="1083.38" x2="392.83" y2="220.84">
  </linearGradient>
  <linearGradient id="id10" gradientUnits="userSpaceOnUse" xlink:href="#id0" x1="1628.84" y1="1083.36" x2="392.8" y2="220.82">
  </linearGradient>
  <linearGradient id="id11" gradientUnits="userSpaceOnUse" xlink:href="#id0" x1="1628.88" y1="1083.33" x2="392.8" y2="220.83">
  </linearGradient>
  <linearGradient id="id12" gradientUnits="userSpaceOnUse" xlink:href="#id0" x1="1628.84" y1="1083.39" x2="392.82" y2="220.83">
  </linearGradient>
  <linearGradient id="id13" gradientUnits="userSpaceOnUse" xlink:href="#id0" x1="1628.87" y1="1083.35" x2="392.8" y2="220.81">
  </linearGradient>
  <linearGradient id="id14" gradientUnits="userSpaceOnUse" xlink:href="#id0" x1="1628.86" y1="1083.36" x2="392.8" y2="220.82">
  </linearGradient>
  <linearGradient id="id15" gradientUnits="userSpaceOnUse" xlink:href="#id0" x1="1628.86" y1="1083.36" x2="392.81" y2="220.81">
  </linearGradient>
  <linearGradient id="id16" gradientUnits="userSpaceOnUse" xlink:href="#id0" x1="1628.86" y1="1083.36" x2="392.81" y2="220.81">
  </linearGradient>
  <linearGradient id="id17" gradientUnits="userSpaceOnUse" xlink:href="#id0" x1="1628.84" y1="1083.35" x2="392.83" y2="220.79">
  </linearGradient>
  <linearGradient id="id18" gradientUnits="userSpaceOnUse" xlink:href="#id0" x1="1628.86" y1="1083.36" x2="392.81" y2="220.81">
  </linearGradient>
  <linearGradient id="id19" gradientUnits="userSpaceOnUse" xlink:href="#id0" x1="1628.84" y1="1083.35" x2="392.83" y2="220.79">
  </linearGradient>
  <linearGradient id="id20" gradientUnits="userSpaceOnUse" xlink:href="#id0" x1="1628.87" y1="1083.33" x2="392.8" y2="220.82">
  </linearGradient>
  <linearGradient id="id21" gradientUnits="userSpaceOnUse" xlink:href="#id0" x1="1628.84" y1="1083.38" x2="392.83" y2="220.84">
  </linearGradient>
  <linearGradient id="id22" gradientUnits="userSpaceOnUse" xlink:href="#id0" x1="1628.87" y1="1083.38" x2="392.8" y2="220.79">
  </linearGradient>
  <linearGradient id="id23" gradientUnits="userSpaceOnUse" xlink:href="#id0" x1="1628.87" y1="1083.36" x2="392.8" y2="220.82">
  </linearGradient>
  <linearGradient id="id24" gradientUnits="userSpaceOnUse" xlink:href="#id0" x1="1628.85" y1="1083.36" x2="392.82" y2="220.81">
  </linearGradient>
  <linearGradient id="id25" gradientUnits="userSpaceOnUse" xlink:href="#id0" x1="1628.85" y1="1083.37" x2="392.82" y2="220.81">
  </linearGradient>
  <linearGradient id="id26" gradientUnits="userSpaceOnUse" xlink:href="#id0" x1="1628.87" y1="1083.36" x2="392.8" y2="220.82">
  </linearGradient>
  <linearGradient id="id27" gradientUnits="userSpaceOnUse" xlink:href="#id0" x1="1628.86" y1="1083.35" x2="392.81" y2="220.82">
  </linearGradient>
  <linearGradient id="id28" gradientUnits="userSpaceOnUse" x1="107.77" y1="1441.54" x2="1636.17" y2="1307.02">
   <stop offset="0" style="stop-opacity:1; stop-color:#B07829"/>
   <stop offset="0.25098" style="stop-opacity:1; stop-color:#F1EE84"/>
   <stop offset="0.478431" style="stop-opacity:1; stop-color:#B07829"/>
   <stop offset="0.721569" style="stop-opacity:1; stop-color:#F1EE84"/>
   <stop offset="1" style="stop-opacity:1; stop-color:#B07829"/>
  </linearGradient>
 </defs>
 <g id="Layer_x0020_1">
  <metadata id="CorelCorpID_0Corel-Layer"/>
  <g id="_2561240323568">
   <path class="fil0" d="M1027.9 475.46l-9.46 6.36c-0.1,2.31 -0.33,7.1 -0.06,9.37 1.36,11.43 -3.6,3.91 -0.14,10.63l92.42 -37.14 2.13 21.96c0.14,0.62 0.43,1.7 0.78,2.49l216.93 43.7 -0.24 -51.96c-48.98,-5.97 -109.4,-21.22 -158.82,-30.88 -83.04,-16.24 -49.48,-13.73 -143.54,25.46z"/>
   <path class="fil1" d="M1027.9 575.88l-9.46 6.35c-0.1,2.31 -0.33,7.1 -0.06,9.38 1.36,11.43 -3.6,3.91 -0.14,10.63l92.42 -37.14 2.13 21.96c0.14,0.62 0.43,1.7 0.78,2.49l216.93 43.7 -0.24 -51.96c-48.98,-5.96 -109.4,-21.22 -158.82,-30.88 -83.04,-16.24 -49.48,-13.73 -143.54,25.46z"/>
   <path class="fil2" d="M1027.9 676.3l-9.46 6.36c-0.1,2.31 -0.33,7.1 -0.06,9.37 1.36,11.43 -3.6,3.91 -0.14,10.63l92.42 -37.14 2.13 21.96c0.14,0.62 0.43,1.7 0.78,2.49l216.93 43.7 -0.24 -51.96c-48.98,-5.96 -109.4,-21.22 -158.82,-30.88 -83.04,-16.24 -49.48,-13.74 -143.54,25.46z"/>
   <path class="fil3" d="M682.18 698.65l0.04 -22.74c-19.93,-6.61 -48.55,-20.96 -68.72,-30.52 -32.83,-15.54 -39.72,-7.66 -77.22,-0.07 -51.48,10.43 -117.9,19.84 -165.3,33.41l0.14 49.47 219.26 -42.15 -0.04 -23.24 91.86 35.82z"/>
   <path class="fil4" d="M137.8 1147.52c30.83,0.12 44.37,6.54 60.26,-11.49 54.21,-61.5 118.56,-124.88 172.85,-187.65l69.44 -73.06 198.21 213.5c65.3,69.98 39.74,59.07 108.43,58.56 109.42,-0.81 68.5,20.63 164.12,-83.33 13.93,-15.15 26.99,-28.22 40.29,-43.37 6.89,-7.85 12.83,-12.88 20.61,-21.24l178.26 -194.61c15.7,5.91 36.48,33.93 49.52,47.33 7.37,7.58 9.91,9.39 14.69,19.04 -62.58,-0.63 -42.97,-5.04 -94.47,47.78 -21.4,21.95 -48.25,53.27 -69.01,75.82l-103.82 111.7c-9,9.65 -29.44,26.05 -34.77,41.36 50.25,-1.14 102.69,-0.75 153.07,-0.48 56.74,0.3 37.6,-3.82 93.38,-60.59 24.77,-25.21 48.16,-52.73 72.56,-78.77l73.25 -80.86c21.93,10.33 173.68,188.21 204.02,214.88 10.45,9.19 37.76,6.89 55.04,4.8 -6.65,-10.88 -15.36,-17.7 -22.12,-24.85 -9.01,-9.51 -15.16,-17.87 -23.94,-27.5l-194.83 -207.59c-35.78,-39.33 -33.55,6.95 -69.97,-33.01l-97.32 -104.79c-18.52,0.47 -307.4,95.8 -359.37,112.88 -41.29,13.57 -33.57,12.99 -77.88,5.45l-244.09 -42.6c-41.91,-7.69 -34.93,-9 -83.34,46.94 -4.01,4.64 -6.16,7.51 -10.48,12.12 -4.74,5.05 -8.37,7.52 -13.08,12.54l-137.43 149.15c-16.74,18.59 -83.98,87.56 -92.07,101.95z"/>
   <path class="fil5" d="M226.95 792.07c-47.85,-66.44 -152.41,-37.22 -129.1,60.02 -31.64,11.68 -45.89,32.72 -44.5,75.33 -17.73,7.48 -35.18,21.6 -40.12,46.66 -7.49,37.92 13.83,48.54 23.98,67.41 -20.17,39.52 -19.26,80.08 27.08,100.69 25.46,11.31 29.56,1.67 59.07,-32.56l76.39 -81.37 49.15 -53.82 74.73 -79.81c12.67,-14.31 10.82,-14.78 10.59,-39.83 -0.31,-34.69 1.25,-71.11 -0.32,-105.48 -19.33,-12.04 -46.51,-12 -67.78,-2.34 -24.63,11.18 -25.17,23.45 -39.17,45.12z"/>
   <path class="fil6" d="M1369.47 750.15c-3.79,17.85 -1.54,55.48 -1.51,75.57 0.08,47.24 -5.9,49.04 12.77,67.73l133.25 146.71c23.6,23.7 84.09,94.44 98.4,105.65 16.74,-4.96 30.38,-21.89 35.08,-40.48 7.16,-28.35 -3.63,-42.6 -11.6,-60.2 14.89,-13.9 27.68,-29.39 24.17,-61.2 -3.04,-27.53 -19.32,-39.48 -37.48,-51.93 -0.87,-39.9 -12.13,-63.33 -42.46,-74.17 28.27,-100.41 -89.07,-122.69 -118.14,-60.45 -8.23,-8.67 -24.68,-67.13 -92.47,-47.22z"/>
   <polygon class="fil7" points="877.06,798.19 905.24,791.45 905.95,45.37 878.19,32.77 "/>
   <path class="fil8" d="M932.89 781.45c36.7,-7.17 29,-6.87 29,-62l-0.23 -646.42 -28.02 -12.87 -0.74 721.3z"/>
   <path class="fil9" d="M682.18 397.39l0.04 -22.74c-19.93,-6.61 -48.55,-20.96 -68.72,-30.51 -32.83,-15.55 -39.72,-7.66 -77.22,-0.07 -51.48,10.42 -117.9,19.84 -165.3,33.41l0.14 49.47 219.26 -42.15 -0.04 -23.24 91.86 35.83z"/>
   <path class="fil10" d="M682.18 497.8l0.04 -22.74c-19.93,-6.61 -48.55,-20.96 -68.72,-30.51 -32.83,-15.55 -39.72,-7.66 -77.22,-0.07 -51.48,10.42 -117.9,19.84 -165.3,33.41l0.14 49.46 219.26 -42.14 -0.04 -23.24 91.86 35.82z"/>
   <path class="fil11" d="M682.18 598.22l0.04 -22.74c-19.93,-6.61 -48.55,-20.96 -68.72,-30.52 -32.83,-15.54 -39.72,-7.66 -77.22,-0.06 -51.48,10.42 -117.9,19.84 -165.3,33.41l0.14 49.46 219.26 -42.15 -0.04 -23.24 91.86 35.82z"/>
   <path class="fil12" d="M682.18 296.96l0.04 -22.74c-19.93,-6.61 -48.55,-20.96 -68.72,-30.52 -32.83,-15.55 -39.72,-7.66 -77.22,-0.07 -51.48,10.42 -117.9,19.84 -165.3,33.41l0.14 49.47 219.26 -42.15 -0.04 -23.24 91.86 35.83z"/>
   <path class="fil13" d="M1027.9 375.04l-9.46 6.36c-0.1,2.31 -0.33,7.1 -0.06,9.37 1.36,11.43 -3.6,3.91 -0.14,10.63l92.42 -37.14 2.13 21.97c0.14,0.61 0.43,1.69 0.78,2.49l216.93 43.7 -0.24 -51.96c-48.98,-5.96 -109.4,-21.22 -158.82,-30.88 -83.04,-16.24 -49.48,-13.73 -143.54,25.46z"/>
   <path class="fil14" d="M679.09 799.96c4.47,-5.3 2.38,-0.22 3.87,-9.79 0.76,-4.85 -0.14,-7.62 -0.57,-12.25 -22.18,-7.5 -45.7,-20.06 -67.2,-29.65 -37.33,-16.64 -39.49,-8.37 -81.2,-0.24 -51.41,10.02 -113.37,20.14 -162.74,33.05l0.01 50.28c20.1,-2.15 45.69,-37.18 52.83,-48.46 23.01,0.46 58.92,8.64 82.33,12.87 37.24,6.73 46.83,-1.47 82.09,-6.57l2.27 -24.02 88.31 34.78z"/>
   <path class="fil15" d="M1330.53 836.28l0.19 -49.21 -115.46 -24.04c24.42,16.24 37.66,58.27 76.22,65.3 13.07,2.38 28.67,5.08 39.05,7.96z"/>
   <path class="fil16" d="M679.09 799.96c1.02,29.4 -14.66,24 27.96,31.04 13,2.15 38.74,8.31 51.85,6.61 10.42,-1.35 75.59,-22.6 89.79,-28.96l0.71 -785.51 -166.4 75.42 -3.91 701.4z"/>
   <path class="fil17" d="M1019.06 99.45c-10.52,-5.1 -17.76,-10.13 -30.41,-11.56l0.01 674.29 30.54 -7.7 -0.14 -655.03z"/>
   <rect class="fil18" x="377.3" y="1021.52" width="57.06" height="58.15"/>
   <rect class="fil19" x="1258.54" y="1042.26" width="47.79" height="48.7"/>
   <rect class="fil20" x="377.3" y="1091.04" width="57.06" height="58.15"/>
   <rect class="fil21" x="1258.54" y="1100.49" width="47.79" height="48.7"/>
   <rect class="fil22" x="442.96" y="1091.04" width="57.06" height="58.15"/>
   <rect class="fil23" x="1313.53" y="1100.49" width="47.79" height="48.7"/>
   <rect class="fil24" x="442.96" y="1021.52" width="57.06" height="58.15"/>
   <rect class="fil25" x="1313.53" y="1042.26" width="47.79" height="48.7"/>
  </g>
  <path class="fil26" d="M213.5 1390.65l0 -22.35 -63 0 0 32.96 23.71 0 0 2.26c0,6.09 -1.58,12.65 -6.1,17.16 -3.61,3.83 -9.26,6.32 -17.61,6.32 -7.22,0 -12.65,-2.93 -15.58,-6.77 -3.61,-4.74 -5.87,-10.39 -5.87,-39.74 0,-29.35 2.26,-34.77 5.87,-39.51 2.93,-3.84 8.35,-7 15.58,-7 13.55,0 19.87,5.87 23.03,18.06l39.74 0c-3.84,-26.42 -21.45,-53.29 -62.77,-53.29 -19.42,0 -32.96,6.32 -44.71,18.06 -16.93,16.93 -16.26,39.51 -16.26,63.67 0,24.16 -0.68,46.74 16.26,63.67 11.74,11.74 25.97,18.06 44.71,18.06 17.61,0 32.96,-3.84 46.74,-18.06 12.19,-12.42 16.26,-27.55 16.26,-53.51zm148.34 70.22l0 -160.54 -39.51 0 0 61.64 -42 0 0 -61.64 -39.52 0 0 160.54 39.52 0 0 -63.67 42 0 0 63.67 39.51 0zm163.7 0l-58.48 -160.54 -30.48 0 -58.48 160.54 41.32 0 7.91 -23.93 49.44 0 7.45 23.93 41.32 0zm-59.16 -56.9l-28 0 14.45 -42.79 13.55 42.79zm202.54 56.9l-34.77 -66.95c12.64,-6.32 26.19,-20.06 26.19,-41.92 0,-26.38 -19.19,-51.67 -54.87,-51.67l-63.67 0 0 160.54 39.52 0 0 -59.76 13.32 0 28.45 59.76 45.83 0zm-48.09 -108.87c0,8.32 -6.32,16.22 -17.16,16.22l-22.35 0 0 -32.44 22.35 0c10.84,0 17.16,7.86 17.16,16.22zm204.57 53.81l0 -105.48 -39.51 0 0 104.58c0,15.35 -8.81,22.09 -21,22.09 -8.8,0 -12.87,-3.12 -17.83,-8.09l-25.97 25.7c13.1,13.09 25.06,17.61 43.8,17.61 30.26,0 60.51,-18.29 60.51,-56.41zm159.19 55.06l-58.48 -160.54 -30.48 0 -58.48 160.54 41.32 0 7.91 -23.93 49.44 0 7.45 23.93 41.32 0zm-59.16 -56.9l-28 0 14.45 -42.79 13.55 42.79zm225.34 56.9l0 -160.54 -38.83 0 -36.13 70.79 -36.13 -70.79 -38.84 0 0 160.54 39.52 0 0 -76.88 22.8 39.67 25.29 0 22.81 -39.67 0 76.88 39.51 0zm141.8 0l0 -35.22 -69.77 0 0 -28.22 59.61 0 0 -35.22 -59.61 0 0 -26.65 69.77 0 0 -35.22 -109.28 0 0 160.54 109.28 0zm137.28 0l0 -35.22 -69.77 0 0 -28.22 59.61 0 0 -35.22 -59.61 0 0 -26.65 69.77 0 0 -35.22 -109.28 0 0 160.54 109.28 0zm153.54 0l0 -160.54 -39.51 0 0 80.72 -51.48 -80.72 -34.55 0 0 160.54 39.52 0 0 -80.72 51.48 80.72 34.54 0z"/>
  <path class="fil27" d="M77.8 1528.72l1521.41 0c6.88,0 12.51,-3.03 12.51,-6.73 0,-3.7 -5.63,-6.73 -12.51,-6.73l-1521.41 0c-6.88,0 -12.51,3.03 -12.51,6.73 0,3.7 5.63,6.73 12.51,6.73z"/>
  <path class="fil28" d="M77.8 1239.2l1521.41 0c6.88,0 12.51,-3.03 12.51,-6.73 0,-3.7 -5.63,-6.73 -12.51,-6.73l-1521.41 0c-6.88,0 -12.51,3.03 -12.51,6.73 0,3.7 5.63,6.73 12.51,6.73z"/>
 </g>
</svg>
